/* XPM */
static char * papel_xpm[] = {
"85 59 233 2",
"  	c None",
". 	c #FFFFFF",
"+ 	c #FEFEFE",
"@ 	c #FDFDFD",
"# 	c #F9F9F9",
"$ 	c #ECECEC",
"% 	c #DBDBDB",
"& 	c #C2C2C2",
"* 	c #A6A6A6",
"= 	c #858585",
"- 	c #EAEAEA",
"; 	c #F6F6F6",
"> 	c #EBEBEB",
", 	c #DADADA",
"' 	c #C5C5C5",
") 	c #AAAAAA",
"! 	c #8D8D8D",
"~ 	c #717171",
"{ 	c #5C5C5C",
"] 	c #4D4D4D",
"^ 	c #3F3F3F",
"/ 	c #383838",
"( 	c #3C3C3C",
"_ 	c #E1E1E1",
": 	c #FBFBFB",
"< 	c #F7F7F7",
"[ 	c #F1F1F1",
"} 	c #EDEDED",
"| 	c #EFEFEF",
"1 	c #F2F2F2",
"2 	c #FCFCFC",
"3 	c #F8F8F8",
"4 	c #F0F0F0",
"5 	c #E0E0E0",
"6 	c #C3C3C3",
"7 	c #989898",
"8 	c #727272",
"9 	c #545454",
"0 	c #414141",
"a 	c #343434",
"b 	c #313131",
"c 	c #363636",
"d 	c #3D3D3D",
"e 	c #3E3E3E",
"f 	c #DDDDDD",
"g 	c #D8D8D8",
"h 	c #D6D6D6",
"i 	c #D7D7D7",
"j 	c #DEDEDE",
"k 	c #D9D9D9",
"l 	c #DCDCDC",
"m 	c #FAFAFA",
"n 	c #BEBEBE",
"o 	c #999999",
"p 	c #7B7B7B",
"q 	c #595959",
"r 	c #3B3B3B",
"s 	c #2B2B2B",
"t 	c #2E2E2E",
"u 	c #2C2C2C",
"v 	c #303030",
"w 	c #333333",
"x 	c #393939",
"y 	c #E3E3E3",
"z 	c #DFDFDF",
"A 	c #E5E5E5",
"B 	c #E2E2E2",
"C 	c #CECECE",
"D 	c #373737",
"E 	c #2F2F2F",
"F 	c #3A3A3A",
"G 	c #404040",
"H 	c #434343",
"I 	c #424242",
"J 	c #454545",
"K 	c #E4E4E4",
"L 	c #E9E9E9",
"M 	c #A9A9A9",
"N 	c #444444",
"O 	c #464646",
"P 	c #4A4A4A",
"Q 	c #CDCDCD",
"R 	c #CACACA",
"S 	c #D0D0D0",
"T 	c #D1D1D1",
"U 	c #CCCCCC",
"V 	c #D2D2D2",
"W 	c #CFCFCF",
"X 	c #B7B7B7",
"Y 	c #474747",
"Z 	c #494949",
"` 	c #4B4B4B",
" .	c #C4C4C4",
"..	c #C7C7C7",
"+.	c #484848",
"@.	c #AFAFAF",
"#.	c #B4B4B4",
"$.	c #C1C1C1",
"%.	c #C8C8C8",
"&.	c #C9C9C9",
"*.	c #E7E7E7",
"=.	c #E6E6E6",
"-.	c #F3F3F3",
";.	c #B1B1B1",
">.	c #D3D3D3",
",.	c #D5D5D5",
"'.	c #5A5A5A",
").	c #4E4E4E",
"!.	c #505050",
"~.	c #4C4C4C",
"{.	c #D4D4D4",
"].	c #5B5B5B",
"^.	c #4F4F4F",
"/.	c #515151",
"(.	c #525252",
"_.	c #626262",
":.	c #555555",
"<.	c #E8E8E8",
"[.	c #EEEEEE",
"}.	c #6C6C6C",
"|.	c #535353",
"1.	c #F5F5F5",
"2.	c #575757",
"3.	c #ABABAB",
"4.	c #C6C6C6",
"5.	c #676767",
"6.	c #565656",
"7.	c #ACACAC",
"8.	c #AEAEAE",
"9.	c #B2B2B2",
"0.	c #B9B9B9",
"a.	c #BBBBBB",
"b.	c #666666",
"c.	c #CBCBCB",
"d.	c #BCBCBC",
"e.	c #A7A7A7",
"f.	c #B0B0B0",
"g.	c #B8B8B8",
"h.	c #BFBFBF",
"i.	c #C0C0C0",
"j.	c #696969",
"k.	c #A5A5A5",
"l.	c #A3A3A3",
"m.	c #A0A0A0",
"n.	c #9A9A9A",
"o.	c #9B9B9B",
"p.	c #A8A8A8",
"q.	c #ADADAD",
"r.	c #B5B5B5",
"s.	c #BDBDBD",
"t.	c #B6B6B6",
"u.	c #6E6E6E",
"v.	c #B3B3B3",
"w.	c #BABABA",
"x.	c #9F9F9F",
"y.	c #A4A4A4",
"z.	c #7D7D7D",
"A.	c #929292",
"B.	c #919191",
"C.	c #A2A2A2",
"D.	c #878787",
"E.	c #353535",
"F.	c #818181",
"G.	c #747474",
"H.	c #7F7F7F",
"I.	c #848484",
"J.	c #838383",
"K.	c #797979",
"L.	c #636363",
"M.	c #9E9E9E",
"N.	c #8E8E8E",
"O.	c #969696",
"P.	c #979797",
"Q.	c #323232",
"R.	c #959595",
"S.	c #767676",
"T.	c #787878",
"U.	c #757575",
"V.	c #6B6B6B",
"W.	c #5F5F5F",
"X.	c #616161",
"Y.	c #737373",
"Z.	c #8B8B8B",
"`.	c #7A7A7A",
" +	c #777777",
".+	c #F4F4F4",
"++	c #292929",
"@+	c #282828",
"#+	c #2D2D2D",
"$+	c #868686",
"%+	c #8F8F8F",
"&+	c #7E7E7E",
"*+	c #606060",
"=+	c #262626",
"-+	c #252525",
";+	c #272727",
">+	c #2A2A2A",
",+	c #222222",
"'+	c #232323",
")+	c #212121",
"!+	c #1F1F1F",
"~+	c #202020",
"{+	c #1B1B1B",
"]+	c #1D1D1D",
"^+	c #1A1A1A",
"/+	c #191919",
"(+	c #181818",
"_+	c #171717",
":+	c #151515",
"<+	c #141414",
"[+	c #131313",
"}+	c #A1A1A1",
"|+	c #111111",
"1+	c #0F0F0F",
"2+	c #0E0E0E",
"3+	c #0D0D0D",
"4+	c #101010",
"5+	c #0C0C0C",
"6+	c #0B0B0B",
"7+	c #0A0A0A",
"8+	c #090909",
"9+	c #121212",
"0+	c #080808",
"a+	c #070707",
"b+	c #060606",
"c+	c #888888",
"d+	c #808080",
"e+	c #050505",
"f+	c #656565",
"g+	c #585858",
"h+	c #040404",
"i+	c #1E1E1E",
"j+	c #8C8C8C",
". . . . . . . . . . . . . . . . . . . . . . . . . . . . . . . . . . . . . . . . . . . . . . . . . . . . . . . . . . . . . . . . . . . . . . . . . . . . . . . . . . . . . ",
". . . . . . . . . . . . . . . . . . . . . . . . . . . . . . . . . . . . . . . . . . . . . . . . . . . . . . . . . . . . . . . . . . . . . . . . . . . . . . . . . . . . . ",
". . . . . . . . . . . . . . . . . . . . . . . . . . . . . . . . . . . . . . . . . . . . . . . . . . . . . . . . . . . . . . . . . . . . . . . . . . . . . . . . . . . . . ",
". . . . . . . . . . . . . . . . . . . . . . . . . . . . . . . . . . . . . . . . . . . . . . . . . . . . . . . . . . . . . . . . . . . . . . . . . . . . . . . . . . . . . ",
". . . . . . . . . . . . . . . . . . . . . . . . . . . . . . . . . . . . . . . . . . . . . . . . . . . . . . . . . . . . . . . . . . . . . . . . . . . . . . . . . . . . . ",
". . . . . . . . . . . . . . . . . . . . . . . . . . . . . . . . . . . . . . . . . . . . . . . . . . . . . . . . . . . . . . . . . . . . . . . . . . . . . . . . . . . . . ",
". . . . . . . . . . . . . . . . . . . . . . . . . . . . . . . . . . . . . . . . . . . . . . . . . . . . . . . . . . . . . . . . . . . . . . . . . . . . . . . . . . . . . ",
". . . . . . . . . . . . . . . . . . . . . . . . . . . . . . . . . . . . . . . . . . . . . . . . . . . . . . . . . . . . . . . . . . . . . . . . . . . . . . . . . . . . . ",
". . . . . . . . . . . . . . . . . . . . . . . . . . . . . . . . . . . . . . . . . . . . . . . . . . . . . . . . . . . . . . . . . . . . . . . . . . . . . . . . . . . . . ",
". . . . . . . . . . . . . . . . . . . . . . . . . . . . . . . . . . . . . . . . . . . . . . . . . . . . . . . . . . . . . . . . . . . . . . . . . . . . . . . . . . . . . ",
". . . . . . . . . . . . . . . . . . . . . . . . . . . . . . . . . . . . . . . . . . . . . . . . . . . . . . . . . . . . . . . . . . . . . . . . . . . . . . . . . . . . . ",
". . . . . . . . . . . . . . . . . . . . . . . . . . . . . . . . . . . . . . . . . . . . . . . . . . . . . . . . . . . . . . . . . . . . . . + + + + . + + @ @ . . . . . . ",
". . . . . . . . . . . . . . . . . . . . . . . . . . . . . . . . . . . . . . . . . . . . . . . . . . . . . . . . . . . . . . . . . + + + + + + @ @ # $ % & * = - . . . . . ",
". . . . . . . . . . . . . . . . . . . . . . . . . . . . . . . . . . . . . . . . . . . . . . . . . . . . . . . . . . . . . . . . . + @ ; > , ' ) ! ~ { ] ^ / ( _ . . . . . ",
". . . . . . . . . . . . . . . . . . . . . . . . . . . . . . . . . . . . . . + + + + + + + + : < [ } > $ | 1 # @ @ + + + @ 2 3 4 5 6 7 8 9 0 a b c c c / ( d e _ . . . . . ",
". . . . . . . . . . . . . . . . . . . . . . . . . . . . . . . . . . . . . . + @ + @ @ @ : | f g h i , j j k l > m @ @ 3 n o p q r s s t u v w x r ( ^ d 0 0 ^ _ . . . . . ",
". . . . . . . . . . . . . . . . . . . . . . . . . . . . . . . . . . . . . . + + @ @ 2 m y h g k % z y A B _ f g y m @ C D E u t v b E w c F d G e G H I J J 0 _ . . . . . ",
". . . . . . . . . . . . . . . . . . . . . . . . . . . . . . . . . + + @ # } B f k z K % h i g f z K L A B 5 l g k ; 2 M d x x / F r r r d e N N H I H H J O P y . . . . . ",
". . . . . . . . . . . . . . . . . . . . . . . . . . . . . . . . + + 2 L Q R S T U V W C h h g f z K K K y B f % B 2 @ X N ^ ^ d e d r G e H N H H N Y Z ` Y Z B . . . . . ",
". . . . . . . . . . . . . . . . . . . . . . . . . . . . . . . . + 2 3 '  ...C U ..W U U h i , j B y B A A y B _ $ @ @ S Z N I G ^ ( e I N +.Y +.Z Y O N H H J B . . . . . ",
". . . . . . . . . . . . . . . . . . . . . . . . . . . . . . . + @ : 1 @.#.$.%.&.%.W W T h g , j z f B A A A *.=.-.+ + z 9 +.J H G I H J +.P +.+.Z Z ` ` P ` Z y . . . . . ",
". . . . . . . . . . . . . . . . . . . . . . . . . . . . . + @ @ 2 : -.;.;.6 W T V >.>.,.,.h i , g l B K *.L > > < . . *.'.Z P Y O Z Z P P ).!.).] !.!.).] ~.~.y . . . . . ",
". . . . . . . . . . . . . . . . . . . . . . . . . . . . . + @ : [ y h U U C >.,.{.,.{.{.{.,.i h g f y =.L L } $ # . . > ].` ] ).^.^.~.~.^./.(./.).!.!./.^.] ^.y . . . . . ",
". . . . . . . . . . . . . . . . . + + @ + @ @ @ @ + @ @ : 3 1 z T V T S S >.V V {.h ,.,.{.h ,.g f y =.L - $ $ > m . . [ _.(./././.).` ` ] /.(.(.!./.:.(.!.^.(.K . . . . . ",
". . . . . . . . . . . . . . . . . + @ @ @ @ 2 : : -.- 5 i U ..V h {.,.>.>.S {.h ,.{.V ,.k , , z =.<.L > $ $ } [.: . . ; }.9 (.^.).~.~.(.^./.^./.!./.|.|.!.!./.K . . . . . ",
". . . . . . . . . . . . . . . . . + @ 2 1.> l >. .6 W {.T %.%.W T C S T W S W W W S ,.l 5 _ y =.L > } $ [.[.| | : . . 1 }.2.(.^.).~.~././.!.(.!./.|.9 !.!.(./.K . . . . . ",
". . . . . . . + @ @ @ @ @ @ 2 < *.V W ' X ;.3.@.6 S ,.h V 4...&.'  . .4.&.U W >.g f B A K *.L L > $ } | [ | [ | : . . > 5.6.!.).^.^.).^.] ^.!.!.!.^.).).] ] ] y . . . . . ",
". . . . . . @ @ 2 @ @ 2 2 } R @.7.8.9.0.0.a.a.n 6 4.R %...R R U C W R W h , f 5 y <.> - > $ $ $ } 4 4 4 | [.| [.: . . <.b.6.).^.^.^.).).).).).] ^.] ~.P ~.P Z y . . . . . ",
". . . . . . @ 2 } 5 k c.d.3.e.7.3.f.7.* ) g.h.6 6 i.d.0.h.&.S {.i g {.% 5 A =.<.- } $ [.[.[.} $ > [.| $ - } $ > : . . $ j.:.^.` ] ~.~.` P ` ` Z P Z +.+.+.O Y B . . . . . ",
". . . . . . : ,.7.k.l.m.n.o.p.q.7.M 8.M M r.h.$.6 s.g.t.h.C >.h k , l _ A *.<.> | [.$ } [.[.> L =.<.L *.*.<.=.A m . . 1.u.(.] P ` ` P P Z +.Y +.Y H H I H H H B . . . . . ",
". . . . . + [.m.e.e.p.q.3.@.;.v.@.X i. .a.r.w. .Q V W R %.S {.>.i f z z B y A L - > - *.*.=.*.K K y K K _ j l l # . . m 8 ).P Z O J Y O O J J I 0 G G e ^ ( e _ . . . . . ",
". . . . . . z x.y.l.* M v.0.s.h.$.%.R Q S &.&.S ,.i i V &.U V U >.g k k , f _ B _ y B _ z f z z f , g g h {.T V ; . . @ z.P P O I 0 I 0 ^ ( ( F F / D x x x x 5 . . . . . ",
". . . . . + A o 7 A.B.7 3.q.8.3.C.p.f.#.d.6 & ......' 4...$.4.& ' %.U W S V h h k k i g g g g , i ,.T W &. .i.$.| + + @ D.H H e ( r D D D E.a a E.c E.a E.w E.z . . . . . ",
". . . . . + ; k.F.p G.H.I.J.J.K.q :.9 L.p A.n.M.m.7 A.N.O.7 P.O.O.C.7.#.g.g.n  . .%.4.'  .6 $.i.h.0.t.r.;.@.7.q.K 2 @ 2 B./ Q.t a Q.E.a w w a Q.w a v E b b Q.z . . . . . ",
". . . . . + : 3 1 1.# m 1.1.; 1.| *.>.0.e.R.K.8 S.T.U.V.W.{ '.|.^ G ] 2.X.5.Y.J.Z.O.x.C.C.m.o.P.Z.`.j.9 !.]. +! U 1 .+.+@.w ++@+++s #+u #+v E E t u u u u u s j . . . . . ",
". . . . . . + @ + + + + + + + . + + + + + : -.[ -.1 | } L *.*.A R ) $+T.%+) 7.x.N.&+8 L.X.*+q 9 ~.J H 0 I O 2.8 t.*.L - ' c =+-+-+;+++@+;+>+s >+@+;+=+=+++>+@+f . . . . . ",
". . . . . . . . . . . . . . . . . . . . . . . . . . . . . . . . + @ 2 : 2 @ 2 2 : 3 [ *.B y K A *.<.L - > > - <.g i % f Q I ,+'+'+)+!+)+~+,+'+)+)+~+)+~+~+~+~+l . . . . . ",
". . . . . . . . . . . . . . . . . . . . . . . . . . . . . . . . + @ + @ @ @ @ @ @ @ @ @ @ + + @ + + @ + + @ @ 2 =.W >.T U /.{+]+^+^+/+(+_+(+(+:+:+:+:+<+[+:+:+, . . . . . ",
". . . . . . . . . . . . . . . . . . . . . . . . . . . . . . . . . + . . . . . . . + . . . . + . . . . . . + + + | #.) k.}+9 (+(+<+|+1+2+3+4+2+5+6+7+7+7+8+6+5+k . . . . . ",
". . . . . . . . . . . . . . . . . . . . . . . . . . . . . . . . . . . . . . . . . . . . . . . . . . . . . . . . < 6 M x.%+9 (+9+[+|+3+6+7+7+8+8+0+0+a+b+b+b+a+g . . . . . ",
". . . . . . . . . . . . . . . . . . . . . . . . . . . . . . . . . . . . . . . . . . . . . . . . . . . . . . . . # w.c+d+8 O ^+1+9+|+5+6+8+6+3+5+5+8+a+a+e+b+e+g . . . . . ",
". . . . . . . . . . . . . . . . . . . . . . . . . . . . . . . . . . . . . . . . . . . . . . . . . . . . . . . . : & f+2./.|.g+e 4+4+1+3+7+7+6+7+0+a+a+a+b+e+e+g . . . . . ",
". . . . . . . . . . . . . . . . . . . . . . . . . . . . . . . . . . . . . . . . . . . . . . . . . . . . . . . . @ : -.m @ @ @ W =+4+1+5+6+7+7+7+8+8+0+0+a+b+b+g . . . . . ",
". . . . . . . . . . . . . . . . . . . . . . . . . . . . . . . . . . . . . . . . . . . . . . . . . . . . . . . . + + @ @ @ @ @ .+(.2+3+5+3+7+7+7+0+8+0+a+b+b+e+g . . . . . ",
". . . . . . . . . . . . . . . . . . . . . . . . . . . . . . . . . . . . . . . . . . . . . . . . . . . . . . . . . . + + + + + 2 P.2+2+2+6+7+8+0+0+0+0+b+b+a+h+g . . . . . ",
". . . . . . . . . . . . . . . . . . . . . . . . . . . . . . . . . . . . . . . . . . . . . . . . . . . . . . . . . . . . . . + @ W @+8+a+8+7+a+a+a+a+a+e+h+e+h+g . . . . . ",
". . . . . . . . . . . . . . . . . . . . . . . . . . . . . . . . . . . . . . . . . . . . . . . . . . . . . . . . . . . . . . + + # %+(+<+/+i+'+>+b / I !.X.S.j+[.. . . . . ",
". . . . . . . . . . . . . . . . . . . . . . . . . . . . . . . . . . . . . . . . . . . . . . . . . . . . . . . . . . . . . . . . + 1.' n R >.l =.[.; 2 + + . . . . . . . . ",
". . . . . . . . . . . . . . . . . . . . . . . . . . . . . . . . . . . . . . . . . . . . . . . . . . . . . . . . . . . . . . . . . + + + + . . . . . . . . . . . . . . . . ",
". . . . . . . . . . . . . . . . . . . . . . . . . . . . . . . . . . . . . . . . . . . . . . . . . . . . . . . . . . . . . . . . . + + + + . . . . . . . . . . . . . . . . ",
". . . . . . . . . . . . . . . . . . . . . . . . . . . . . . . . . . . . . . . . . . . . . . . . . . . . . . . . . . . . . . . . . . . . . . . . . . . . . . . . . . . . . ",
". . . . . . . . . . . . . . . . . . . . . . . . . . . . . . . . . . . . . . . . . . . . . . . . . . . . . . . . . . . . . . . . . . . . . . . . . . . . . . . . . . . . . ",
". . . . . . . . . . . . . . . . . . . . . . . . . . . . . . . . . . . . . . . . . . . . . . . . . . . . . . . . . . . . . . . . . . . . . . . . . . . . . . . . . . . . . ",
". . . . . . . . . . . . . . . . . . . . . . . . . . . . . . . . . . . . . . . . . . . . . . . . . . . . . . . . . . . . . . . . . . . . . . . . . . . . . . . . . . . . . ",
". . . . . . . . . . . . . . . . . . . . . . . . . . . . . . . . . . . . . . . . . . . . . . . . . . . . . . . . . . . . . . . . . . . . . . . . . . . . . . . . . . . . . ",
". . . . . . . . . . . . . . . . . . . . . . . . . . . . . . . . . . . . . . . . . . . . . . . . . . . . . . . . . . . . . . . . . . . . . . . . . . . . . . . . . . . . . ",
". . . . . . . . . . . . . . . . . . . . . . . . . . . . . . . . . . . . . . . . . . . . . . . . . . . . . . . . . . . . . . . . . . . . . . . . . . . . . . . . . . . . . ",
". . . . . . . . . . . . . . . . . . . . . . . . . . . . . . . . . . . . . . . . . . . . . . . . . . . . . . . . . . . . . . . . . . . . . . . . . . . . . . . . . . . . . ",
". . . . . . . . . . . . . . . . . . . . . . . . . . . . . . . . . . . . . . . . . . . . . . . . . . . . . . . . . . . . . . . . . . . . . . . . . . . . . . . . . . . . . "};
