/* XPM */
static char * pedra_xpm[] = {
"85 59 241 2",
"  	c None",
". 	c #FFFFFF",
"+ 	c #FCFCFC",
"@ 	c #FDFDFD",
"# 	c #FEFEFE",
"$ 	c #F9F9F9",
"% 	c #ECECEC",
"& 	c #F1F1F1",
"* 	c #FBFBFB",
"= 	c #EBEBEB",
"- 	c #C6C6C6",
"; 	c #C2C2C2",
"> 	c #CBCBCB",
", 	c #D8D8D8",
"' 	c #E5E5E5",
") 	c #EEEEEE",
"! 	c #F8F8F8",
"~ 	c #F7F7F7",
"{ 	c #D4D4D4",
"] 	c #B4B4B4",
"^ 	c #C3C3C3",
"/ 	c #CECECE",
"( 	c #D2D2D2",
"_ 	c #D7D7D7",
": 	c #D6D6D6",
"< 	c #DDDDDD",
"[ 	c #F5F5F5",
"} 	c #E8E8E8",
"| 	c #CCCCCC",
"1 	c #BDBDBD",
"2 	c #CACACA",
"3 	c #DCDCDC",
"4 	c #DEDEDE",
"5 	c #DBDBDB",
"6 	c #DFDFDF",
"7 	c #EDEDED",
"8 	c #E1E1E1",
"9 	c #D0D0D0",
"0 	c #D5D5D5",
"a 	c #DADADA",
"b 	c #CDCDCD",
"c 	c #C7C7C7",
"d 	c #C8C8C8",
"e 	c #C9C9C9",
"f 	c #E9E9E9",
"g 	c #D1D1D1",
"h 	c #BEBEBE",
"i 	c #E0E0E0",
"j 	c #C1C1C1",
"k 	c #C5C5C5",
"l 	c #BBBBBB",
"m 	c #C4C4C4",
"n 	c #FAFAFA",
"o 	c #888888",
"p 	c #B2B2B2",
"q 	c #D9D9D9",
"r 	c #BFBFBF",
"s 	c #B1B1B1",
"t 	c #B5B5B5",
"u 	c #B3B3B3",
"v 	c #AFAFAF",
"w 	c #D3D3D3",
"x 	c #6D6D6D",
"y 	c #A0A0A0",
"z 	c #BABABA",
"A 	c #A1A1A1",
"B 	c #9E9E9E",
"C 	c #9A9A9A",
"D 	c #B9B9B9",
"E 	c #F4F4F4",
"F 	c #7D7D7D",
"G 	c #767676",
"H 	c #929292",
"I 	c #9B9B9B",
"J 	c #A2A2A2",
"K 	c #B0B0B0",
"L 	c #7C7C7C",
"M 	c #808080",
"N 	c #B6B6B6",
"O 	c #B8B8B8",
"P 	c #A4A4A4",
"Q 	c #787878",
"R 	c #848484",
"S 	c #AAAAAA",
"T 	c #CFCFCF",
"U 	c #939393",
"V 	c #8A8A8A",
"W 	c #A9A9A9",
"X 	c #B7B7B7",
"Y 	c #828282",
"Z 	c #707070",
"` 	c #747474",
" .	c #878787",
"..	c #A3A3A3",
"+.	c #6B6B6B",
"@.	c #969696",
"#.	c #ADADAD",
"$.	c #BCBCBC",
"%.	c #989898",
"&.	c #5B5B5B",
"*.	c #414141",
"=.	c #696969",
"-.	c #838383",
";.	c #777777",
">.	c #9C9C9C",
",.	c #E7E7E7",
"'.	c #A6A6A6",
").	c #717171",
"!.	c #727272",
"~.	c #8C8C8C",
"{.	c #ACACAC",
"].	c #ABABAB",
"^.	c #818181",
"/.	c #919191",
"(.	c #8D8D8D",
"_.	c #9D9D9D",
":.	c #8F8F8F",
"<.	c #797979",
"[.	c #A7A7A7",
"}.	c #444444",
"|.	c #C0C0C0",
"1.	c #F2F2F2",
"2.	c #565656",
"3.	c #131313",
"4.	c #343434",
"5.	c #6C6C6C",
"6.	c #F0F0F0",
"7.	c #F6F6F6",
"8.	c #EFEFEF",
"9.	c #6F6F6F",
"0.	c #282828",
"a.	c #595959",
"b.	c #AEAEAE",
"c.	c #F3F3F3",
"d.	c #EAEAEA",
"e.	c #171717",
"f.	c #0A0A0A",
"g.	c #0B0B0B",
"h.	c #1B1B1B",
"i.	c #353535",
"j.	c #4B4B4B",
"k.	c #5C5C5C",
"l.	c #6A6A6A",
"m.	c #909090",
"n.	c #E4E4E4",
"o.	c #1E1E1E",
"p.	c #3E3E3E",
"q.	c #626262",
"r.	c #737373",
"s.	c #8E8E8E",
"t.	c #E6E6E6",
"u.	c #949494",
"v.	c #0D0D0D",
"w.	c #0C0C0C",
"x.	c #090909",
"y.	c #080808",
"z.	c #141414",
"A.	c #252525",
"B.	c #4D4D4D",
"C.	c #666666",
"D.	c #303030",
"E.	c #5E5E5E",
"F.	c #686868",
"G.	c #A5A5A5",
"H.	c #646464",
"I.	c #101010",
"J.	c #0E0E0E",
"K.	c #070707",
"L.	c #060606",
"M.	c #111111",
"N.	c #616161",
"O.	c #7B7B7B",
"P.	c #9F9F9F",
"Q.	c #555555",
"R.	c #5D5D5D",
"S.	c #868686",
"T.	c #979797",
"U.	c #E2E2E2",
"V.	c #151515",
"W.	c #0F0F0F",
"X.	c #575757",
"Y.	c #434343",
"Z.	c #7F7F7F",
"`.	c #1D1D1D",
" +	c #4F4F4F",
".+	c #3A3A3A",
"++	c #181818",
"@+	c #161616",
"#+	c #121212",
"$+	c #3F3F3F",
"%+	c #7E7E7E",
"&+	c #3D3D3D",
"*+	c #1A1A1A",
"=+	c #898989",
"-+	c #383838",
";+	c #4E4E4E",
">+	c #585858",
",+	c #858585",
"'+	c #202020",
")+	c #606060",
"!+	c #191919",
"~+	c #8B8B8B",
"{+	c #636363",
"]+	c #262626",
"^+	c #222222",
"/+	c #757575",
"(+	c #1C1C1C",
"_+	c #292929",
":+	c #A8A8A8",
"<+	c #6E6E6E",
"[+	c #2A2A2A",
"}+	c #2C2C2C",
"|+	c #959595",
"1+	c #1F1F1F",
"2+	c #212121",
"3+	c #999999",
"4+	c #313131",
"5+	c #2D2D2D",
"6+	c #5F5F5F",
"7+	c #676767",
"8+	c #242424",
"9+	c #7A7A7A",
"0+	c #424242",
"a+	c #393939",
"b+	c #4A4A4A",
"c+	c #232323",
"d+	c #373737",
"e+	c #040404",
"f+	c #050505",
"g+	c #5A5A5A",
"h+	c #656565",
"i+	c #2F2F2F",
"j+	c #030303",
"k+	c #020202",
"l+	c #494949",
"m+	c #010101",
"n+	c #000000",
"o+	c #535353",
"p+	c #525252",
"q+	c #515151",
"r+	c #464646",
". . . . . . . . . . . . . . . . . . + @ # . . # . . . . . . . . . . . . . . . . . . . . . . . . . . . . . . . . . . . . . . . . . . . . . . . . . . . . . . . . . . . . . ",
". . . . . . . . . . . . . . . . . . $ % & * @ @ . . . . . . . . . . . . . . . . . . . . . . . . . . . . . . . . . . . . . . . . . . . . . . . . . . . . . . . . . . . . . ",
". . . . . . . . . . . . # # # # @ = - ; > , ' ) ! @ # # # # # # # # . . . . . . . . . . . . . . . . . . . . . . . . . . . . . . . . . . . . . . . . . . . . . . . . . . . ",
". . . . . . . . . . . # + + @ ~ { ] ^ / ( _ , : _ < ) [ $ + @ @ @ # # . . . . . . . . . . . . . . . . . . . . . . . . . . . . . . . . . . . . . . . . . . . . . . . . . . ",
". . . . . . . . . . . . + ~ } | 1 2 , { ( 3 4 5 _ ( ( | / : 6 % ~ @ # # . . . . . . . . . . . . . . . . . . . . . . . . . . . . . . . . . . . . . . . . . . . . . . . . . ",
". . . . . . . # # + ~ 7 8 { 9 0 a 4 6 0 > 4 4 a ( b > ; c d e e ( f * @ # # # . . . . . . . . . . . . . . . . . . . . . . . . . . . . . . . . . . . . . . . . . . . . . . ",
". . . . . . . @ @ g h ; | { _ 5 6 8 i { j 6 4 : > k 1 l m e ( : { { ' n @ @ @ . . . . . . . . . . . . . . . . . . . . . . . . . . . . . . . . . . . . . . . . . . . . . . ",
". . . . . . . @ = o p d 9 { _ , 0 q 0 r s 5 q | k ; t u v r w 5 , { ( 6 ! @ # . . . . . . . . . . . . . . . . . . . . . . . . . . . . . . . . . . . . . . . . . . . . . . ",
". . . . . . # @ 3 x y z m c d > b g 2 A y | > r ; l B C A D / { ( 0 { g , E @ @ # # . . . . . . . . . . . . . . . . . . . . . . . . . . . . . . . . . . . . . . . . . . . ",
". . . . . . # @ n F G H I J K j b b l L M v u N O P y Q R S l m c T : { / 9 f n @ @ . . . . . . . . . . . . . . . . . . . . . . . . . . . . . . . . . . . . . . . . . . . ",
". . . . . . @ # @ 7 U V W p X ; > 9 T 1 Y Z `  .M ..N F +.@.u - | 0 0 0 { g b 5 E + . . . . . . . . . . . . . . . . . . . . . . . . . . . . . . . . . . . . . . . . . . . ",
". . . . . . # # # * y ..u #.S t ^ e d / e $.%.&.*.=.@.-.;.>.t ; b { : : w 0 0 w w ,.+ @ # . . . . . . . . . . . . . . . . . . . . . . . . . . . . . . . . . . . . . . . . ",
". . . . . . . . . & Y P ] K '.W ] ; e 9 w { 9 ; ).!.I ~.Y I {.l d 9 g ( 0 q a a : b < ~ + . . . . . . . . . . . . . . . . . . . . . . . . . . . . . . . . . . . . . . . . ",
". . . . . . . . . ) o J v {.].'.W N - 9 : q w > ^.)./.~.(._.{.z k e T 0 q < 5 q q { | : E . . . . . . . . . . . . . . . . . . . . . . . . . . . . . . . . . . . . . . . . ",
". . . . . . . . . * ..:.P '.W S v p h / , q { d V &.<.^.(.B {.N c d g , a 3 4 < a _ { b 0 [ @ @ # # @ # @ ,.w f ~ # # @ . # # # # # # # . # # # . . . . . . . . . . . . . ",
". . . . . . . . . + 6 R C ..y [.] D 1 / { { 9 / U }.=.`  .@.J K |.2 ( _ q 4 6 4 < 5 : 0 { 5 ~ + ~ [ $ $ 1.2.3.4.5.J : 6.7.~ $ n * + @ # # # @ # . . . . . . . . . . . . . ",
". . . . . . . . . 8.{.K r ; 1 1 m j |.> / T k $.9.0.a.=.^.~.I b.D - | w : 5 4 8 8 i < 3 a _ 5 c.8 ) d.N ;.e.f.g.f.g.g.h.i.j.k.l.<.m.{.c n.$ # # . . . . . . . . . . . . . ",
". . . . . . # # . ..I 1 e d ; j - b ( { T - j z <.o.p.q.r.M s...p j d ( g , 6 8 t.n.8 4 < 5 w l / ! ~ u.e.v.w.g.w.g.f.f.g.x.y.x.y.y.x.v.z.A.B.Q >.z 6 . . . . . . . . . . ",
". . . . . . # # # L B D > > ^ h r d / w _ : g | h C.D.E.F.<.Y U G.] $.m 2 0 3 6 ' t.8 4 < < : p 8 n c.H.z.I.J.w.w.w.v.w.g.f.f.x.x.x.y.K.L.L.L.x.J.M.N.. . . . . . . . . . ",
". . . . . . # . + O.P.X c d m 1 h - > 9 w 0 { w - I D.Q.R.Z ^.S.T.G.t $.d 9 , 3 6 n.U.6 4 3 e [.E * 4 4.V.M.W.J.J.J.W.w.g.w.g.f.x.y.x.y.y.y.K.K.y.y.X.. . . . . . . . . . ",
". . . . . . # . . :.@.u ^ k ; ; m 2 / g g ( ( _ d N Y.j.&.E.` Z.s.y ].X m b ( : < n.U.6 < 5 K v n $ [.`.z.M.I.I.I.J.J.J.v.J.J.g.w.f.f.x.x.K.y.y.y.y.X.. . . . . . . . . . ",
". . . . . . . . . e ;.>.u X h m d / ( _ _ g / w - X  +.+X.2.H.;.S./.A K l k > 9 5 i 8 4 3 : U 2 $ 6.C.++@+#+#+#+I.J.w.v.J.W.J.J.v.w.w.f.f.x.f.y.y.y.2.. . . . . . . . . . ",
". . . . . . . . . n s F.;.I ].v v N r e / / > e h P.$+D. +Q.k.x %+S.u.G.u h m b 0 q < 4 < | (.} ! 6 &+*+e.V.V.3.#+W.J.J.J.J.W.I.I.W.v.g.w.f.f.f.x.x.2.. . . . . . . . . . ",
". . . . . . . . . + n O =+$.k - ^ h r ^ e / / / - #.j.-+;+2.a.H.<.R o (.P.s 1 c T 0 < 6 3 |.B E 7.s A.h.e.@+V.z.#+3.W.I.M.W.W.W.I.W.J.w.w.g.w.g.f.w.C.. . . . . . . . . . ",
". . . . . . . . . + * _.y j > b m r ^ c / : q q _ { W ;+>+&.a.k.9.R o ,+(.B K $.m T _ q a b.1 ! 6.;.`.o.++V.@+3.#+M.I.M.M.M.W.W.I.M.I.I.J.v.J.w.v.'+C.. . . . . . . . . . ",
". . . . . . . . . @ c.V _.D e | ^ $.r ; d ( , , _ q e R &.)+R.&.H.r.M ^.R m.y b.O d g { w U w $ 4 Y.h.*+!+e.@+V.z.#+#+3.3.M.I.#+M.3.#+M.J.W.M.I.`.o.&.. . . . . . . . . . ",
". . . . . . . . . @ ~ s.B O ^ e |.|.; - | { a q , _ - z ~+!.{+)+!.Z.-.%+L R H P p 1 2 T $.~+t.~ ] ]+!+*+!+e.e.e.@+z.3.z.z.#+#+#+3.V.3.#+M.W.#+`.^+W.&.. . . . . . . . . . ",
". . . . . . . . . @ @ m -.].D h $.|.k > ( , 3 5 _ 9 ; j %.(.I V r./+ .(.V =+(.@.'.] m 2 U P.c.c.(.(+h.(+*+!+++e.@+z.V.z.3.3.3.z.V.V.V.3.3.3.*+_+@+M.E.. . . . . . . . . . ",
". . . . . . . . . @ @ E _.O._.:+b.K p u O h d T 2 k z h Y =+A :+y V =+U %.y y P.P N j ; <+j ! 8.).++`.o.*+!+++e.@+@+z.#+3.V.V.@+@+@+V.V.3.++[+*+@+3.E.. . . . . . . . . . ",
". . . . . . . . . # # @ % @.Q G.b.s u ] 1 j e T j W p v O.(.P.G.'.B u.T.>.].] ] u D ^ v {+: ! f >+V.(+`.h.++++!+++@+@+z.z.@+@+@+e.e.@+z.V.}+`.V.V.z.R.. . . . . . . . . . ",
". . . . . . . . . . . . n r '.h k m ^ - > | 9 : T v '.T.:./.J '.P.>._.C I b.$.; - m m |+/+t.~ 5 $+z.`.1+`.*+e.++!+@+e.V.e.e.e.e.++e.@+@+0.2+@+@+V.V.E.. . . . . . . . . . ",
". . . . . . . . . . . . 1.I W $.c - ; k d > 9 , ( ^ m _.S I J :+y 3+_.P._.S l c b | 2 S.C 6.7.|.}+V.(+`.h.*+!+@+++e.e.@+++e.!+!+++V.z.1+0.V.@+e.e.@+)+. . . . . . . . . . ",
". . . . . . . . . . . # 7 V P.1 k c ; c e > | { g - g {.N #.G.{.P _.>.A J #.$.k | g > ` z E 7.K A.@+(+(+h.*+h.!+++e.@+++!+!+*+++++++++4+@+e.@+@+V.V.)+. . . . . . . . . . ",
". . . . . . . . . . . . E u.3+] h ; ; - e / 2 2 e - c S h |.p u #.P y G.S b.O j d b ; =.( & c.A `.@+h.h.*+h.!+!+*+++++!+*+!+!+++e.*+5+o.e.@+V.V.z.z.6+. . . . . . . . . . ",
". . . . . . . . . . . # n | ` _.p N t X D r ; 1 1 r :+{.|.k j $.O v '.:+b.{.K O ; d u r.< 7 = ~+@+e.!+(+h.*+*+h.++e.++++h.!+++++++[+2+V.@+V.@+@+V.z.6+. . . . . . . . . . ",
". . . . . . . . . . . . @ ! v 7+~.B P.3+m./.m.....].A p ; k - r l D {.'.S S ].p $.; C :.n.d.i 9.#+#+3.@+V.e.!+*+!+++++!+!+!+e.++8+]+V.@+V.V.V.z.V.@+6+. . . . . . . . . . ",
". . . . . . . . . . . . # @ ! l +.Z.T.@.m.].h l P s u N r r j |.h l p S [.'.:+{.X D 9+b.n.,.2 0+I.@+e.V.#+#+3.z.3.z.V.++@+e.!+2+[+e.e.z.V.V.V.V.V.@+6+. . . . . . . . . . ",
". . . . . . . . . . . . # @ # n 0 M ~+%+C K |.p G.] O D D N N D X X #.'...y J :+v ].N.k 8 n.P ^+M.!+e.@+V.V.V.@+z.z.3.#+I.#+*+0.!+@+V.z.3.#+V.V.3.z.6+. . . . . . . . . . ",
". . . . . . . . . . . . # # # + + d.b.).m.,+S I P.u ] D t P.J ].:+#.P @.I %.C y G.@.R.( a : x z.V.e.@+V.z.V.V.@+@+V.@+V.z.e.0.V.W.W.W.W.#+3.3.3.3.3.E.. . . . . . . . . . ",
". . . . . . . . . . . . . . . . . . * = ' ].H R H A J W K m.%+T.3+y C R :.s.:.U |+9.+.{ , K a+W.z.z.3.V.z.z.3.z.V.@+e.V.@+0.`.3.#+M.#+I.v.v.w.v.v.W.R.. . . . . . . . . . ",
". . . . . . . . . . . . . . . . . . + + + & u %+-.M  .s.@.(.l.G  .V /.` /+r.` Q /+.+Q c / <.1+W.M.I.M.#+3.3.M.#+3.@+e.e.A.'+3.3.M.3.3.#+3.z.#+W.w.g.a.. . . . . . . . . . ",
". . . . . . . . . . . . . . . . . . @ @ @ @ * ) 8 ( m s P u.Q q.7+9.Z.9.<+6+)+r.S.%+F S S b+e.J.I.v.J.I.I.I.M.#+#+V.V.c+A.#+3.z.3.3.M.I.3.#+M.M.M.I.k.. . . . . . . . . . ",
". . . . . . . . . . . . . . . . . . . . . . . . . . . @ @ @ @ * 7.8.f 8 n.& * @ @ f Q.+.Q.8+#+v.f.y.x.w.J.J.W.W.W.I.*+[+#+M.#+3.#+I.I.M.#+#+#+#+M.M.R.. . . . . . . . . . ",
". . . . . . . . . . . . . . . . . . . . . . . . . . . @ # @ @ + + # @ @ @ @ @ # @ + d.#.<+d+I.f.x.L.L.y.x.w.w.w.v.#+_+#+M.I.#+3.M.I.W.v.M.I.W.W.I.W.&.. . . . . . . . . . ",
". . . . . . . . . . . . . . . . . . . . . . . . . . . . # # # # # # # # # # # # # # # @ 7.n.,+K.e+f+f+L.K.x.x.x.v.c+I.v.W.J.I.I.I.I.J.v.J.v.W.W.W.J.g+. . . . . . . . . . ",
". . . . . . . . . . . . . . . . . . . . . . . . . . . . . . . . . . . . . . . . . . . . # + f 3+h+i+g.j+e+L.K.x.(+#+y.x.f.g.w.v.v.W.J.v.v.J.v.v.v.J.g+. . . . . . . . . . ",
". . . . . . . . . . . . . . . . . . . . . . . . . . . . . . . . . . . . . . . . . . . . # @ @ @ n 6 I .+v.k+e+z.V.L.K.K.x.x.x.g.w.g.w.w.w.w.g.g.g.w.a.. . . . . . . . . . ",
". . . . . . . . . . . . . . . . . . . . . . . . . . . . . . . . . . . . . . . . . . . . . # # # . # # % [.l+o.@+j+j+j+f+K.K.K.K.y.y.f.g.y.y.x.y.x.x.>+. . . . . . . . . . ",
". . . . . . . . . . . . . . . . . . . . . . . . . . . . . . . . . . . . . . . . . . . . . . . . . . # @ @ [ r a.z.j+m+k+j+e+f+L.L.K.K.x.K.K.y.y.f.f.2.. . . . . . . . . . ",
". . . . . . . . . . . . . . . . . . . . . . . . . . . . . . . . . . . . . . . . . . . . . . . . . . # @ @ # # ~ | Z h.k+n+m+k+e+e+f+K.K.L.L.K.x.g.x.o+. . . . . . . . . . ",
". . . . . . . . . . . . . . . . . . . . . . . . . . . . . . . . . . . . . . . . . . . . . . . . . . . # # . # # # + < M ]+k+n+m+k+j+j+e+L.K.y.f.w.L.p+. . . . . . . . . . ",
". . . . . . . . . . . . . . . . . . . . . . . . . . . . . . . . . . . . . . . . . . . . . . . . . . . . . . . . . # @ + } 3+d+y.m+m+k+j+e+L.y.f.g.f+q+. . . . . . . . . . ",
". . . . . . . . . . . . . . . . . . . . . . . . . . . . . . . . . . . . . . . . . . . . . . . . . . . . . . . . # # # # @ + d.W ;+3.j+k+j+e+L.y.g.e+q+. . . . . . . . . . ",
". . . . . . . . . . . . . . . . . . . . . . . . . . . . . . . . . . . . . . . . . . . . . . . . . . . . . . . . . # # # # # # @ c.- ).A.e+j+f+K.x.k+p+. . . . . . . . . . ",
". . . . . . . . . . . . . . . . . . . . . . . . . . . . . . . . . . . . . . . . . . . . . . . . . . . . . . . . . . . . . . . . . # ~ 4 @.r+I.e+L.k+p+. . . . . . . . . . ",
". . . . . . . . . . . . . . . . . . . . . . . . . . . . . . . . . . . . . . . . . . . . . . . . . . . . . . . . . . . . . . . . . # @ # @ % O H.^+f+p+. . . . . . . . . . ",
". . . . . . . . . . . . . . . . . . . . . . . . . . . . . . . . . . . . . . . . . . . . . . . . . . . . . . . . . . . . . . . . . # # # . # # ~ g =+Z.. . . . . . . . . . ",
". . . . . . . . . . . . . . . . . . . . . . . . . . . . . . . . . . . . . . . . . . . . . . . . . . . . . . . . . . . . . . . . . . . . . . . # # @ $ . . . . . . . . . . ",
". . . . . . . . . . . . . . . . . . . . . . . . . . . . . . . . . . . . . . . . . . . . . . . . . . . . . . . . . . . . . . . . . . . . . . . . . # # . . . . . . . . . . "};
